<svg width="428" height="576" viewBox="0 0 428 576" fill="none" xmlns="http://www.w3.org/2000/svg">
<g opacity="0.5">
<line opacity="0.1" y1="-0.418633" x2="577.713" y2="-0.418633" transform="matrix(1 0 0 -1 -75.2847 64.4297)" stroke="url(#paint0_linear_118_1129)" stroke-opacity="0.6" stroke-width="0.837266"/>
<line opacity="0.3" y1="-0.418633" x2="575.201" y2="-0.418633" transform="matrix(-3.90753e-08 -1 -1 4.88975e-08 53.6543 576)" stroke="url(#paint1_linear_118_1129)" stroke-opacity="0.6" stroke-width="0.837266"/>
<line opacity="0.3" y1="-0.418633" x2="577.713" y2="-0.418633" transform="matrix(1 0 0 -1 -75.2847 128.9)" stroke="url(#paint2_linear_118_1129)" stroke-opacity="0.6" stroke-width="0.837266"/>
<line opacity="0.4" y1="-0.418633" x2="575.201" y2="-0.418633" transform="matrix(-3.90753e-08 -1 -1 4.88975e-08 118.124 576)" stroke="url(#paint3_linear_118_1129)" stroke-opacity="0.6" stroke-width="0.837266"/>
<line opacity="0.4" y1="-0.418633" x2="577.713" y2="-0.418633" transform="matrix(1 0 0 -1 -75.2847 192.533)" stroke="url(#paint4_linear_118_1129)" stroke-opacity="0.6" stroke-width="0.837266"/>
<line opacity="0.7" y1="-0.418633" x2="575.201" y2="-0.418633" transform="matrix(-3.90753e-08 -1 -1 4.88975e-08 181.756 576)" stroke="url(#paint5_linear_118_1129)" stroke-opacity="0.6" stroke-width="0.837266"/>
<line opacity="0.7" y1="-0.418633" x2="577.713" y2="-0.418633" transform="matrix(1 0 0 -1 -75.2847 256.166)" stroke="url(#paint6_linear_118_1129)" stroke-opacity="0.6" stroke-width="0.837266"/>
<line opacity="0.7" y1="-0.418633" x2="575.201" y2="-0.418633" transform="matrix(-3.90753e-08 -1 -1 4.88975e-08 245.388 576)" stroke="url(#paint7_linear_118_1129)" stroke-opacity="0.6" stroke-width="0.837266"/>
<line opacity="0.7" y1="-0.418633" x2="577.713" y2="-0.418633" transform="matrix(1 0 0 -1 -75.2847 320.633)" stroke="url(#paint8_linear_118_1129)" stroke-opacity="0.6" stroke-width="0.837266"/>
<line opacity="0.4" y1="-0.418633" x2="575.201" y2="-0.418633" transform="matrix(-3.90753e-08 -1 -1 4.88975e-08 309.857 576)" stroke="url(#paint9_linear_118_1129)" stroke-opacity="0.6" stroke-width="0.837266"/>
<line opacity="0.4" y1="-0.418633" x2="577.713" y2="-0.418633" transform="matrix(1 0 0 -1 -75.2847 384.266)" stroke="url(#paint10_linear_118_1129)" stroke-opacity="0.6" stroke-width="0.837266"/>
<line opacity="0.3" y1="-0.418633" x2="575.201" y2="-0.418633" transform="matrix(-3.90753e-08 -1 -1 4.88975e-08 373.49 576)" stroke="url(#paint11_linear_118_1129)" stroke-opacity="0.6" stroke-width="0.837266"/>
<line opacity="0.3" y1="-0.418633" x2="577.713" y2="-0.418633" transform="matrix(1 0 0 -1 -75.2847 447.898)" stroke="url(#paint12_linear_118_1129)" stroke-opacity="0.6" stroke-width="0.837266"/>
<line opacity="0.1" y1="-0.418633" x2="577.713" y2="-0.418633" transform="matrix(1 0 0 -1 -75.2847 512.367)" stroke="url(#paint13_linear_118_1129)" stroke-opacity="0.6" stroke-width="0.837266"/>
</g>
<rect width="63.6754" height="63.6754" transform="matrix(1 0 0 -1 245.923 319.883)" fill="white" fill-opacity="0.03"/>
<rect width="63.6754" height="63.6754" transform="matrix(1 0 0 -1 117.864 384.266)" fill="white" fill-opacity="0.03"/>
<rect width="63.6754" height="63.6754" transform="matrix(1 0 0 -1 373.273 256.207)" fill="white" fill-opacity="0.03"/>
<rect width="63.6754" height="63.6754" transform="matrix(1 0 0 -1 245.923 192.533)" fill="white" fill-opacity="0.03"/>
<rect width="64.8211" height="64.8211" transform="matrix(1 0 0 -1 117.684 193.328)" fill="white" fill-opacity="0.03"/>
<rect width="64.4845" height="64.4845" transform="matrix(1 0 0 -1 373.387 385.109)" fill="white" fill-opacity="0.03"/>
<rect width="63.6848" height="64.3217" transform="matrix(1 0 0 -1 -9.99512 320.625)" fill="white" fill-opacity="0.03"/>
<defs>
<linearGradient id="paint0_linear_118_1129" x1="0" y1="0.5" x2="577.713" y2="0.5" gradientUnits="userSpaceOnUse">
<stop stop-color="#101010" stop-opacity="0"/>
<stop offset="0.53" stop-color="white"/>
<stop offset="1" stop-color="#101010"/>
</linearGradient>
<linearGradient id="paint1_linear_118_1129" x1="0" y1="0.5" x2="575.201" y2="0.5" gradientUnits="userSpaceOnUse">
<stop stop-color="#101010" stop-opacity="0"/>
<stop offset="0.53" stop-color="white"/>
<stop offset="1" stop-color="#101010"/>
</linearGradient>
<linearGradient id="paint2_linear_118_1129" x1="0" y1="0.5" x2="577.713" y2="0.5" gradientUnits="userSpaceOnUse">
<stop stop-color="#101010" stop-opacity="0"/>
<stop offset="0.53" stop-color="white"/>
<stop offset="1" stop-color="#101010"/>
</linearGradient>
<linearGradient id="paint3_linear_118_1129" x1="0" y1="0.5" x2="575.201" y2="0.5" gradientUnits="userSpaceOnUse">
<stop stop-color="#101010" stop-opacity="0"/>
<stop offset="0.53" stop-color="white"/>
<stop offset="1" stop-color="#101010"/>
</linearGradient>
<linearGradient id="paint4_linear_118_1129" x1="0" y1="0.5" x2="577.713" y2="0.5" gradientUnits="userSpaceOnUse">
<stop stop-color="#101010" stop-opacity="0"/>
<stop offset="0.53" stop-color="white"/>
<stop offset="1" stop-color="#101010"/>
</linearGradient>
<linearGradient id="paint5_linear_118_1129" x1="0" y1="0.5" x2="575.201" y2="0.5" gradientUnits="userSpaceOnUse">
<stop stop-color="#101010" stop-opacity="0"/>
<stop offset="0.53" stop-color="white"/>
<stop offset="1" stop-color="#101010"/>
</linearGradient>
<linearGradient id="paint6_linear_118_1129" x1="0" y1="0.5" x2="577.713" y2="0.5" gradientUnits="userSpaceOnUse">
<stop stop-color="#101010" stop-opacity="0"/>
<stop offset="0.53" stop-color="white"/>
<stop offset="1" stop-color="#101010"/>
</linearGradient>
<linearGradient id="paint7_linear_118_1129" x1="0" y1="0.5" x2="575.201" y2="0.5" gradientUnits="userSpaceOnUse">
<stop stop-color="#101010" stop-opacity="0"/>
<stop offset="0.53" stop-color="white"/>
<stop offset="1" stop-color="#101010"/>
</linearGradient>
<linearGradient id="paint8_linear_118_1129" x1="0" y1="0.5" x2="577.713" y2="0.5" gradientUnits="userSpaceOnUse">
<stop stop-color="#101010" stop-opacity="0"/>
<stop offset="0.53" stop-color="white"/>
<stop offset="1" stop-color="#101010"/>
</linearGradient>
<linearGradient id="paint9_linear_118_1129" x1="0" y1="0.5" x2="575.201" y2="0.5" gradientUnits="userSpaceOnUse">
<stop stop-color="#101010" stop-opacity="0"/>
<stop offset="0.53" stop-color="white"/>
<stop offset="1" stop-color="#101010"/>
</linearGradient>
<linearGradient id="paint10_linear_118_1129" x1="0" y1="0.5" x2="577.713" y2="0.5" gradientUnits="userSpaceOnUse">
<stop stop-color="#101010" stop-opacity="0"/>
<stop offset="0.53" stop-color="white"/>
<stop offset="1" stop-color="#101010"/>
</linearGradient>
<linearGradient id="paint11_linear_118_1129" x1="0" y1="0.5" x2="575.201" y2="0.5" gradientUnits="userSpaceOnUse">
<stop stop-color="#101010" stop-opacity="0"/>
<stop offset="0.53" stop-color="white"/>
<stop offset="1" stop-color="#101010"/>
</linearGradient>
<linearGradient id="paint12_linear_118_1129" x1="0" y1="0.5" x2="577.713" y2="0.5" gradientUnits="userSpaceOnUse">
<stop stop-color="#101010" stop-opacity="0"/>
<stop offset="0.53" stop-color="white"/>
<stop offset="1" stop-color="#101010"/>
</linearGradient>
<linearGradient id="paint13_linear_118_1129" x1="0" y1="0.5" x2="577.713" y2="0.5" gradientUnits="userSpaceOnUse">
<stop stop-color="#101010" stop-opacity="0"/>
<stop offset="0.53" stop-color="white"/>
<stop offset="1" stop-color="#101010"/>
</linearGradient>
</defs>
</svg>
