<svg width="151" height="32" viewBox="0 0 151 32" fill="none" xmlns="http://www.w3.org/2000/svg">
<path d="M0.0687025 28.8928C0.116851 29.1609 0.19939 29.429 0.309443 29.6833C0.956002 31.1338 2.34542 32.0069 3.85176 32.0069L33.6141 31.9587C33.8893 31.9587 34.1506 31.8625 34.3639 31.6838L44.2617 23.3315C44.4681 23.1596 44.6056 22.919 44.6538 22.6509L46.8411 10.5658C47.5289 6.75745 44.585 3.25842 40.7125 3.29279C28.7718 3.38903 13.5708 3.51277 13.5708 3.51277C13.3025 3.51277 13.0412 3.60901 12.8279 3.78774L2.93007 12.1401C2.72372 12.3188 2.57928 12.5594 2.53801 12.8344L0.0618242 27.4011C-0.0207153 27.896 -0.0275936 28.3978 0.0618242 28.8859L0.0687025 28.8928Z" fill="#F46630"/>
<path d="M59.6004 21.5923C58.0734 23.029 56.175 23.7508 53.8983 23.7508C51.8073 23.7508 50.129 23.1252 48.8565 21.881C47.584 20.6367 46.9443 18.9594 46.9443 16.8627C46.9443 14.9173 47.2951 13.1918 48.0036 11.6726C48.7121 10.1602 49.7438 8.96411 51.0988 8.09107C52.4538 7.21803 54.0427 6.77808 55.8517 6.77808C57.0279 6.77808 58.0596 6.94993 58.9469 7.29365C59.8342 7.63737 60.5221 8.07045 61.0104 8.58602C60.6115 9.70654 59.8824 10.5865 58.8163 11.2189C58.0459 10.449 56.9935 10.064 55.6523 10.064C54.1803 10.064 53.011 10.6552 52.1512 11.8376C51.2914 13.02 50.8581 14.443 50.8581 16.1134C50.8581 17.3989 51.1745 18.4369 51.8142 19.2344C52.4538 20.0318 53.4031 20.4305 54.6687 20.4305C55.1501 20.4305 55.611 20.348 56.0512 20.1899C56.4914 20.0318 56.8147 19.8737 57.0348 19.7293C57.2549 19.585 57.5094 19.3718 57.8189 19.1106C58.8713 19.6056 59.4697 20.4305 59.6004 21.5785V21.5923Z" fill="white"/>
<path d="M70.8464 6.78495C72.958 6.78495 74.5331 7.24553 75.5855 8.17357C76.6379 9.1016 77.1606 10.3252 77.1606 11.8376C77.1606 12.3325 77.1194 12.8344 77.0299 13.3499L75.2691 23.2352C74.7326 23.3452 74.0792 23.4002 73.3088 23.4002C72.5935 23.4002 71.9675 23.3452 71.431 23.2352L73.013 14.2917C73.1024 13.893 73.1437 13.5149 73.1437 13.1575C73.1437 11.2464 72.1326 10.2909 70.1104 10.2909C68.8654 10.2909 67.7993 10.4902 66.8982 10.8821L64.7041 23.2352C64.1675 23.3452 63.521 23.4002 62.7781 23.4002C62.0353 23.4002 61.4025 23.3452 60.866 23.2352L64.766 1.12051C65.3575 1.00364 66.004 0.941772 66.6919 0.941772C67.3797 0.941772 68.0263 1.00364 68.6178 1.12051L67.4966 7.46551C68.6247 7.0118 69.7458 6.79183 70.8395 6.79183L70.8464 6.78495Z" fill="white"/>
<path d="M88.2345 6.81935C90.7589 6.81935 92.8155 7.33493 94.3975 8.36608L91.7425 23.4346C90.7658 23.5996 89.7822 23.5996 88.7917 23.4346L88.8261 21.441C87.3197 22.9809 85.6002 23.7439 83.6674 23.7439C81.9891 23.7439 80.634 23.194 79.6229 22.0941C78.6118 20.9942 78.0959 19.4612 78.0959 17.4952C78.0959 15.5291 78.5362 13.5974 79.4235 11.9613C80.3108 10.3253 81.5213 9.05351 83.0689 8.15297C84.6166 7.25243 86.3361 6.8056 88.2345 6.8056V6.81935ZM84.8229 20.4443C85.6896 20.4443 86.4943 20.1556 87.2372 19.585C87.9801 19.0144 88.5785 18.1826 89.0393 17.0965L90.1742 10.6209C89.3282 10.3459 88.489 10.2084 87.6499 10.2084C86.0197 10.2084 84.6854 10.8271 83.6261 12.0713C82.5737 13.3156 82.0441 14.9104 82.0441 16.8627C82.0441 17.997 82.2917 18.8701 82.7869 19.4956C83.2822 20.1212 83.9562 20.4374 84.816 20.4374L84.8229 20.4443Z" fill="white"/>
<path d="M95.9178 23.4071C95.1818 23.4071 94.5421 23.3521 94.0056 23.2421L96.8395 7.27991C97.376 7.16993 98.0294 7.11493 98.7998 7.11493C99.522 7.11493 100.141 7.16993 100.643 7.27991L97.8093 23.2421C97.3003 23.3521 96.6744 23.4071 95.9109 23.4071H95.9178ZM101.283 4.19334C100.801 4.68142 100.224 4.92889 99.5426 4.92889C98.8617 4.92889 98.277 4.68142 97.7955 4.19334C97.3141 3.70526 97.0733 3.11407 97.0733 2.41976C97.0733 1.72546 97.321 1.18926 97.8093 0.71493C98.2977 0.240601 98.8754 0 99.5495 0C100.224 0 100.794 0.240601 101.283 0.71493C101.764 1.19613 102.005 1.75983 102.005 2.41976C102.005 3.11407 101.764 3.70526 101.29 4.19334H101.283Z" fill="white"/>
<path d="M109.86 6.78497C112.144 6.78497 113.836 7.25243 114.922 8.19421C116.009 9.13599 116.553 10.394 116.553 11.9751C116.553 12.2638 116.511 12.745 116.422 13.4256L114.661 23.2421C114.125 23.3521 113.471 23.4071 112.701 23.4071C111.979 23.4071 111.36 23.3521 110.857 23.2421L112.405 14.333C112.494 13.9343 112.536 13.5493 112.536 13.1644C112.536 11.2533 111.49 10.2978 109.406 10.2978C108.141 10.2978 107.061 10.449 106.16 10.7583L104.034 23.2421C103.498 23.3521 102.844 23.4071 102.074 23.4071C101.352 23.4071 100.733 23.3521 100.23 23.2421L102.817 8.36607C104.901 7.3143 107.253 6.78497 109.867 6.78497H109.86Z" fill="white"/>
<path d="M129.697 18.8906C130.722 19.4268 131.286 20.2586 131.396 21.3791C129.683 22.9602 127.53 23.7508 124.951 23.7508C122.729 23.7508 120.969 23.1665 119.669 22.0047C118.369 20.8429 117.715 19.0831 117.715 16.7321C117.715 13.8105 118.54 11.432 120.198 9.59653C121.856 7.76109 123.988 6.8468 126.602 6.8468C128.445 6.8468 129.89 7.27988 130.935 8.13918C131.981 8.99847 132.503 10.1877 132.503 11.707C132.503 12.8481 132.173 13.8174 131.506 14.6079C130.839 15.3985 129.979 15.9759 128.913 16.3265C127.847 16.684 126.629 16.8627 125.254 16.8627C124.022 16.8627 122.812 16.6908 121.608 16.354V16.3884C121.608 17.8938 121.938 18.9731 122.606 19.6262C123.273 20.2792 124.243 20.6092 125.515 20.6092C126.141 20.6092 126.739 20.513 127.303 20.3205C127.867 20.128 128.308 19.9287 128.61 19.7293C128.92 19.5299 129.277 19.2481 129.697 18.8975V18.8906ZM126.251 9.91275C125.116 9.91275 124.188 10.2565 123.452 10.9439C122.716 11.6313 122.2 12.58 121.904 13.8036C122.75 14.0648 123.899 14.223 125.35 14.2642C126.395 14.2642 127.221 14.0717 127.819 13.6868C128.425 13.3018 128.727 12.7312 128.727 11.9751C128.727 11.3357 128.521 10.8339 128.101 10.4696C127.682 10.0984 127.07 9.91963 126.258 9.91963L126.251 9.91275Z" fill="white"/>
<path d="M149.087 0.907425C149.658 0.907425 150.284 0.96242 150.965 1.07241L147.257 22.3691C146.48 22.7747 145.538 23.1046 144.43 23.3659C143.323 23.6271 142.195 23.7508 141.046 23.7508C138.618 23.7508 136.734 23.1459 135.392 21.9291C134.051 20.7192 133.384 18.9594 133.384 16.6634C133.384 14.7661 133.831 13.0612 134.718 11.5558C135.605 10.0503 136.809 8.88852 138.322 8.07048C139.836 7.25243 141.507 6.83997 143.344 6.83997C144.41 6.83997 145.331 6.93621 146.116 7.13557L147.168 1.05866C147.918 0.948671 148.557 0.893677 149.094 0.893677L149.087 0.907425ZM137.304 16.1272C137.304 17.4746 137.676 18.5332 138.419 19.2825C139.162 20.0318 140.166 20.4099 141.425 20.4099C142.202 20.4099 143.013 20.293 143.846 20.0662L145.496 10.559C144.781 10.3046 143.997 10.1809 143.137 10.1809C141.376 10.1809 139.966 10.7308 138.9 11.8376C137.834 12.9444 137.304 14.3742 137.304 16.1272Z" fill="white"/>
<path d="M27.9395 4.99762C28.476 4.99762 28.9506 5.02512 29.3633 5.08699C29.604 5.12136 29.7691 5.34134 29.7278 5.58194L27.1622 20.2518C24.9406 21.1729 22.5056 21.6335 19.8437 21.6335C17.7665 21.6335 16.2189 21.2073 15.194 20.3617C14.1691 19.5162 13.6602 18.2994 13.6602 16.7046C13.6602 16.1753 13.7289 15.591 13.8596 14.9448L15.5242 5.4582C15.5586 5.27947 15.6893 5.14198 15.8681 5.11448C16.3564 5.03887 16.9136 4.99762 17.5395 4.99762C18.0898 4.99762 18.5781 5.02512 18.9977 5.08699C19.2384 5.12136 19.4035 5.34134 19.3623 5.58194L17.8559 14.1748C17.7321 14.876 17.6771 15.4054 17.6771 15.7559C17.6771 16.6015 17.9109 17.227 18.3718 17.6258C18.8326 18.0245 19.6305 18.2307 20.7586 18.2307C21.8041 18.2307 22.7945 18.0726 23.7231 17.7495L25.8966 5.4582C25.931 5.27947 26.0617 5.14198 26.2405 5.11448C26.7358 5.03887 27.2998 4.99762 27.9395 4.99762Z" fill="white"/>
<path d="M38.7728 4.66764C41.0564 4.66764 42.7484 5.1351 43.8352 6.07688C44.922 7.01866 45.4653 8.27666 45.4653 9.85776C45.4653 10.1465 45.4241 10.6277 45.3347 11.3082L43.5738 21.1248C43.0373 21.2348 42.3839 21.2898 41.6135 21.2898C41.0839 21.2898 40.6161 21.2623 40.2034 21.2004C39.9627 21.166 39.7976 20.9461 39.8389 20.7055L41.3177 12.2088C41.4071 11.8101 41.4484 11.4251 41.4484 11.0401C41.4484 9.12908 40.4029 8.17355 38.3188 8.17355C37.0532 8.17355 35.9733 8.32478 35.0722 8.63413L32.995 20.8223C32.9675 21.001 32.8299 21.1454 32.6511 21.1729C32.1765 21.2485 31.6193 21.2829 30.9797 21.2829C30.45 21.2829 29.9823 21.2554 29.5696 21.1935C29.3289 21.1592 29.1638 20.9392 29.2051 20.6986L31.7225 6.24186C33.8066 5.19009 36.159 4.66077 38.7728 4.66077V4.66764Z" fill="white"/>
</svg>
